# xmcd
#
# Track frame offsets: 
#        150
#        22381
#        39619
#        56772
#        78183
#        91502
#        102554
#        117285
#        138973
#        157434
#        163534
#        185482
#
# Disc length: 2710 seconds
#
# Revision: 0
# Processed by: cddbd v1.4PL0 Copyright (c) Steve Scherf et al.
# Submitted via: ExactAudioCopy v0.95a3
#
DISCID=a10a940c
DTITLE=Lorin Nicholson - Unwind - a relaxing guitar odyssey
DYEAR=2001
DGENRE=
TTITLE0=Wind Beneath My Wings
TTITLE1=The Mand From Snowy River
TTITLE2=Arioso
TTITLE3=Streets of London
TTITLE4=Till There Was You
TTITLE5=All
TTITLE6=Rebel Heart
TTITLE7=Salt Water
TTITLE8=Lagrima
TTITLE9=Dove Son Quei Fieri Occhi
TTITLE10=Tears in Heaven
TTITLE11=Candle in the Wind
EXTD=
EXTT0=
EXTT1=
EXTT2=
EXTT3=
EXTT4=
EXTT5=
EXTT6=
EXTT7=
EXTT8=
EXTT9=
EXTT10=
EXTT11=
PLAYORDER=
